<?xml version="1.0" encoding="UTF-8"?>
<svg id="Layer_2" data-name="Layer 2" xmlns="http://www.w3.org/2000/svg" viewBox="0 0 176.83 83.85">
  <defs>
    <style>
      .cls-1, .cls-2, .cls-3, .cls-4 {
        stroke: #8888ba;
        stroke-miterlimit: 10;
      }

      .cls-1, .cls-4 {
        fill: #8888ba;
      }

      .cls-2 {
        fill: red;
      }

      .cls-3 {
        fill: none;
      }

      .cls-4 {
        stroke-width: .5px;
      }
    </style>
  </defs>
  <g id="Layer_1-2" data-name="Layer 1">
    <g>
      <circle class="cls-4" cx="49.41" cy="44.96" r="1.29"/>
      <circle class="cls-4" cx="49.41" cy="38.05" r="1.29"/>
      <circle class="cls-4" cx="56.05" cy="48.52" r="1.29"/>
      <circle class="cls-4" cx="56.05" cy="34.63" r="1.29"/>
      <circle class="cls-4" cx="57.17" cy="65.78" r="1.29"/>
      <circle class="cls-4" cx="65.99" cy="74.46" r="1.29"/>
      <circle class="cls-4" cx="70.12" cy="54.2" r="1.29"/>
      <circle class="cls-4" cx="77.57" cy="61.62" r="1.29"/>
      <circle class="cls-4" cx="70.57" cy="29.93" r="1.29"/>
      <circle class="cls-4" cx="77.05" cy="23.41" r="1.29"/>
      <circle class="cls-4" cx="56.48" cy="18.74" r="1.29"/>
      <circle class="cls-4" cx="65.99" cy="9.11" r="1.29"/>
      <circle class="cls-4" cx="82.23" cy="8.79" r="1.29"/>
      <circle class="cls-4" cx="96.72" cy="8.79" r="1.29"/>
      <circle class="cls-4" cx="85.6" cy="1.54" r="1.29"/>
      <circle class="cls-4" cx="93.32" cy="1.54" r="1.29"/>
      <circle class="cls-4" cx="112.51" cy="8.79" r="1.29"/>
      <circle class="cls-4" cx="122.58" cy="18.9" r="1.29"/>
      <circle class="cls-4" cx="101.81" cy="22.95" r="1.29"/>
      <circle class="cls-4" cx="108.35" cy="29.62" r="1.29"/>
      <circle class="cls-4" cx="122.9" cy="34.63" r="1.29"/>
      <circle class="cls-4" cx="129.72" cy="38.05" r="1.29"/>
      <circle class="cls-4" cx="129.59" cy="44.96" r="1.29"/>
      <circle class="cls-4" cx="122.9" cy="48.06" r="1.29"/>
      <circle class="cls-4" cx="108.76" cy="54.27" r="1.29"/>
      <circle class="cls-4" cx="101.42" cy="61.58" r="1.29"/>
      <circle class="cls-4" cx="112.72" cy="74.63" r="1.29"/>
      <circle class="cls-4" cx="121.95" cy="65.56" r="1.29"/>
      <circle class="cls-4" cx="96.72" cy="75.19" r="1.29"/>
      <circle class="cls-4" cx="82.25" cy="75.19" r="1.29"/>
      <circle class="cls-4" cx="85.6" cy="81.84" r="1.29"/>
      <circle class="cls-4" cx="93.32" cy="81.84" r="1.29"/>
    </g>
    <polyline class="cls-3" points="4.55 39.34 10.65 46.9 18.45 55.99 6.82 69.42"/>
    <polyline class="cls-3" points="25.83 53.08 46.93 28.63 64.11 28.63"/>
    <polyline class="cls-3" points="33.1 60.69 44.61 74.32 44.61 82.5 25.78 60.69 8.16 81.18"/>
    <line class="cls-3" x1="36.3" y1="33.63" x2="23.37" y2="48.82"/>
    <ellipse class="cls-1" cx="63.12" cy="28.63" rx="1.26" ry="1.29"/>
    <ellipse class="cls-1" cx="36.3" cy="33.63" rx="1.26" ry="1.29"/>
    <line class="cls-2" x1="28.77" y1="70.25" x2="38.43" y2="82.05"/>
    <g>
      <polyline class="cls-3" points="12.63 34.63 5.2 34.64 24.02 56.43 1.51 82.5 1.51 75.61"/>
      <ellipse class="cls-4" cx="12.63" cy="34.63" rx="1.26" ry="1.29"/>
    </g>
    <g>
      <ellipse class="cls-4" cx="1.51" cy="75.61" rx="1.26" ry="1.29"/>
      <ellipse class="cls-4" cx="7.11" cy="69.42" rx="1.26" ry="1.29"/>
      <ellipse class="cls-4" cx="25.83" cy="53.08" rx="1.26" ry="1.29"/>
      <ellipse class="cls-4" cx="33.1" cy="60.69" rx="1.26" ry="1.29"/>
      <ellipse class="cls-4" cx="4.9" cy="40.1" rx="1.26" ry="1.29"/>
      <ellipse class="cls-4" cx="28.33" cy="69.72" rx="1.26" ry="1.29"/>
      <ellipse class="cls-4" cx="37.99" cy="81.51" rx="1.26" ry="1.29"/>
    </g>
    <line class="cls-2" x1="14.86" y1="39.1" x2="23.37" y2="48.82"/>
    <path class="cls-4" d="M89.48,29.55c-6.81,0-12.33,5.58-12.33,12.47s5.52,12.47,12.33,12.47,12.33-5.58,12.33-12.47-5.52-12.47-12.33-12.47Zm0,19.7c-4,0-7.23-3.23-7.23-7.23s3.23-7.23,7.23-7.23,7.23,3.24,7.23,7.23-3.24,7.23-7.23,7.23Z"/>
    <polyline class="cls-3" points="89.48 7.61 89.48 42.03 70.2 22.63 60.96 22.95 56.48 18.74"/>
    <polyline class="cls-3" points="112.51 8.79 108.18 13.18 108.44 22.95 89.48 42.03 123.65 41.78 126.79 38.05 129.72 38.05"/>
    <polyline class="cls-3" points="57.17 65.78 61.51 61.42 70.2 61.42 89.48 42.03 55.3 41.78 52.37 38.05 49.41 38.05"/>
    <polyline class="cls-3" points="121.95 65.56 117.45 61.42 108.76 61.42 89.48 42.03 89.48 75.96 85.6 78.83 85.6 81.84"/>
    <polyline class="cls-3" points="70.2 22.63 70.2 13.57 65.99 9.11"/>
    <polyline class="cls-3" points="108.44 22.95 118 22.95 122.58 18.9"/>
    <polyline class="cls-3" points="108.76 61.42 108.76 70 112.72 74.63"/>
    <polyline class="cls-3" points="70.2 61.42 70.2 70 65.99 74.46"/>
    <polyline class="cls-3" points="82.25 8.38 82.25 15.64 89.48 22.63 96.71 15.87 96.71 8.38"/>
    <polyline class="cls-3" points="82.25 75.19 82.25 68.42 89.48 61.42 96.71 68.42 96.72 75.19"/>
    <polyline class="cls-3" points="56.05 34.63 63.14 34.63 70.2 42.03 62.9 48.52 56.05 48.52"/>
    <polyline class="cls-3" points="122.9 34.63 115.86 34.79 108.76 41.78 116.15 48.06 122.9 48.06"/>
    <polyline class="cls-3" points="85.6 1.54 85.6 4.53 89.25 7.61 93.32 4.58 93.32 1.54"/>
    <polyline class="cls-3" points="89.48 75.96 93.32 78.83 93.32 81.84"/>
    <polyline class="cls-3" points="55.3 41.78 52.15 44.96 49.41 44.96"/>
    <polyline class="cls-3" points="123.65 41.78 126.68 44.96 129.59 44.96"/>
    <polyline class="cls-3" points="70.57 29.55 77.45 29.93 77.15 22.95"/>
    <polyline class="cls-3" points="101.81 22.95 101.81 29.62 108.35 29.55"/>
    <polyline class="cls-3" points="70.12 54.2 77.57 54.2 77.57 61.62"/>
    <polyline class="cls-3" points="101.42 61.58 101.42 54.2 108.76 54.27"/>
    <polyline class="cls-3" points="150.61 82.29 156.65 76.51 156.65 55.64 166.9 55.64 166.9 45.47 156.25 45.47 156.02 34.63 175.58 34.79 175.58 28.73 117.27 28.63"/>
    <polyline class="cls-3" points="146.73 75.86 146.73 34.69 136.22 34.63"/>
    <line class="cls-3" x1="139.46" y1="44.82" x2="139.46" y2="75.84"/>
    <line class="cls-2" x1="129.72" y1="22.95" x2="175.58" y2="23.41"/>
    <g>
      <circle class="cls-4" cx="117.27" cy="28.63" r="1.29"/>
      <circle class="cls-4" cx="136.22" cy="34.63" r="1.29"/>
      <circle class="cls-4" cx="139.46" cy="44.82" r="1.29"/>
      <circle class="cls-4" cx="139.46" cy="75.84" r="1.29"/>
      <circle class="cls-4" cx="146.73" cy="75.86" r="1.29"/>
      <circle class="cls-4" cx="151.35" cy="81.51" r="1.29"/>
      <circle class="cls-4" cx="175.28" cy="23.41" r="1.29"/>
    </g>
  </g>
</svg>